<svg xmlns="http://www.w3.org/2000/svg" xmlns:xlink="http://www.w3.org/1999/xlink" width="500" zoomAndPan="magnify" viewBox="0 0 375 374.999991" height="500" preserveAspectRatio="xMidYMid meet" version="1.0"><defs><g/></defs><g fill="#86efac" fill-opacity="1"><g transform="translate(53.217958, 169.072963)"><g><path d="M 9.589844 0 L 33.300781 0 L 33.300781 -1.917969 C 28.417969 -3.136719 26.328125 -6.101562 26.328125 -22.140625 L 26.328125 -65.730469 L 54.398438 -65.554688 C 72.53125 -65.382812 76.367188 -61.371094 77.761719 -54.921875 L 79.679688 -54.921875 L 79.679688 -78.109375 L 77.761719 -78.109375 C 76.367188 -71.65625 72.53125 -67.648438 54.398438 -67.820312 L 26.328125 -67.996094 L 26.328125 -119.777344 L 62.242188 -119.777344 C 77.933594 -119.777344 84.558594 -115.59375 89.789062 -104.4375 L 91.359375 -104.785156 L 89.617188 -122.046875 L 9.589844 -122.046875 L 9.589844 -120.128906 C 14.472656 -118.90625 16.5625 -115.941406 16.5625 -99.902344 L 16.5625 -22.140625 C 16.5625 -6.101562 14.472656 -3.136719 9.589844 -1.917969 Z M 9.589844 0 "/></g></g></g><g fill="#737373" fill-opacity="1"><g transform="translate(85.423827, 169.106247)"><g><path d="M 3.257812 0 L 14.882812 0 L 14.882812 -0.96875 C 12.417969 -1.585938 11.359375 -3.082031 11.359375 -11.183594 L 11.359375 -44.117188 L 10.742188 -44.644531 L 3.257812 -41.386719 L 3.257812 -40.59375 C 5.898438 -39.449219 6.78125 -38.65625 6.78125 -31.4375 L 6.78125 -11.183594 C 6.78125 -3.082031 5.722656 -1.585938 3.257812 -0.96875 Z M 4.929688 -56.269531 C 4.929688 -54.242188 6.515625 -52.660156 8.542969 -52.660156 C 10.566406 -52.660156 12.152344 -54.242188 12.152344 -56.269531 C 12.152344 -58.292969 10.65625 -59.878906 8.542969 -59.878906 C 6.515625 -59.878906 4.929688 -58.292969 4.929688 -56.269531 Z M 4.929688 -56.269531 "/></g></g></g><g fill="#737373" fill-opacity="1"><g transform="translate(103.827276, 169.106247)"><g><path d="M 16.820312 0.878906 C 21.75 0.878906 26.417969 -3.171875 29.148438 -6.429688 L 28.441406 -7.132812 C 25.535156 -3.785156 22.367188 -2.289062 19.285156 -2.289062 C 15.585938 -2.289062 12.679688 -4.492188 12.679688 -11.09375 L 12.679688 -42.972656 L 25.359375 -42.972656 L 25.890625 -44.027344 L 12.679688 -44.027344 L 12.679688 -53.980469 L 11.710938 -53.980469 L 2.464844 -44.027344 L 2.464844 -42.972656 L 8.101562 -42.972656 L 8.101562 -10.917969 C 8.101562 -2.113281 11.710938 0.878906 16.820312 0.878906 Z M 16.820312 0.878906 "/></g></g></g><g fill="#737373" fill-opacity="1"><g transform="translate(132.885345, 169.106247)"><g><path d="M 3.257812 0 L 14.882812 0 L 14.882812 -0.96875 C 12.417969 -1.585938 11.359375 -3.082031 11.359375 -11.183594 L 11.359375 -35.136719 C 15.585938 -38.746094 21.308594 -42.355469 26.859375 -42.355469 C 36.015625 -42.355469 40.332031 -37.070312 40.332031 -26.59375 L 40.332031 -11.183594 C 40.332031 -3.082031 39.273438 -1.585938 36.808594 -0.96875 L 36.808594 0 L 48.429688 0 L 48.429688 -0.96875 C 45.964844 -1.585938 44.910156 -3.082031 44.910156 -11.183594 L 44.910156 -28.441406 C 44.910156 -38.832031 39.800781 -44.644531 30.554688 -44.644531 C 23.777344 -44.644531 16.730469 -40.859375 11.359375 -36.457031 L 11.359375 -44.117188 L 10.742188 -44.644531 L 3.257812 -41.386719 L 3.257812 -40.59375 C 5.898438 -39.449219 6.78125 -38.65625 6.78125 -31.4375 L 6.78125 -11.183594 C 6.78125 -3.082031 5.722656 -1.585938 3.257812 -0.96875 Z M 3.257812 0 "/></g></g></g><g fill="#737373" fill-opacity="1"><g transform="translate(183.781006, 169.106247)"><g><path d="M 24.566406 0.878906 C 33.109375 0.878906 39.890625 -4.492188 44.820312 -10.65625 L 44.117188 -11.359375 C 39.625 -6.253906 34.957031 -2.992188 27.824219 -2.992188 C 16.203125 -2.992188 8.101562 -11.269531 8.101562 -24.039062 C 8.101562 -25.890625 8.277344 -27.648438 8.628906 -29.324219 L 44.027344 -29.324219 C 43.589844 -38.394531 36.984375 -44.644531 26.859375 -44.644531 C 13.5625 -44.644531 3.609375 -34.695312 3.609375 -21.046875 C 3.609375 -6.253906 14.882812 0.878906 24.566406 0.878906 Z M 8.804688 -30.378906 C 10.742188 -38.21875 16.203125 -43.148438 23.777344 -43.148438 C 33.902344 -43.148438 38.394531 -34.78125 39.097656 -30.378906 Z M 8.804688 -30.378906 "/></g></g></g><g fill="#737373" fill-opacity="1"><g transform="translate(231.418638, 169.106247)"><g><path d="M 20.339844 0.878906 C 28.617188 0.792969 35.574219 -4.050781 35.574219 -12.328125 C 35.574219 -20.871094 27.035156 -22.808594 20.695312 -24.832031 C 14.882812 -26.679688 7.925781 -29.148438 7.925781 -35.488281 C 7.925781 -40.683594 12.0625 -43.589844 18.492188 -43.589844 C 24.566406 -43.589844 30.378906 -40.152344 33.023438 -33.636719 L 33.726562 -33.8125 L 33.375 -42.089844 C 30.90625 -43.148438 26.066406 -44.644531 19.546875 -44.644531 C 11.269531 -44.644531 4.667969 -40.152344 4.667969 -32.933594 C 4.667969 -24.746094 11.007812 -22.808594 18.316406 -20.339844 C 24.214844 -18.316406 32.230469 -16.554688 32.230469 -9.421875 C 32.230469 -3.433594 27.648438 -0.527344 22.101562 -0.527344 C 14 -0.527344 7.75 -4.753906 4.226562 -13.03125 L 3.523438 -12.855469 L 4.140625 -2.992188 C 6.605469 -1.410156 12.59375 0.96875 20.339844 0.878906 Z M 20.339844 0.878906 "/></g></g></g><g fill="#737373" fill-opacity="1"><g transform="translate(270.250796, 169.106247)"><g><path d="M 20.339844 0.878906 C 28.617188 0.792969 35.574219 -4.050781 35.574219 -12.328125 C 35.574219 -20.871094 27.035156 -22.808594 20.695312 -24.832031 C 14.882812 -26.679688 7.925781 -29.148438 7.925781 -35.488281 C 7.925781 -40.683594 12.0625 -43.589844 18.492188 -43.589844 C 24.566406 -43.589844 30.378906 -40.152344 33.023438 -33.636719 L 33.726562 -33.8125 L 33.375 -42.089844 C 30.90625 -43.148438 26.066406 -44.644531 19.546875 -44.644531 C 11.269531 -44.644531 4.667969 -40.152344 4.667969 -32.933594 C 4.667969 -24.746094 11.007812 -22.808594 18.316406 -20.339844 C 24.214844 -18.316406 32.230469 -16.554688 32.230469 -9.421875 C 32.230469 -3.433594 27.648438 -0.527344 22.101562 -0.527344 C 14 -0.527344 7.75 -4.753906 4.226562 -13.03125 L 3.523438 -12.855469 L 4.140625 -2.992188 C 6.605469 -1.410156 12.59375 0.96875 20.339844 0.878906 Z M 20.339844 0.878906 "/></g></g></g><g fill="#86efac" fill-opacity="1"><g transform="translate(145.134151, 297.247482)"><g><path d="M 9.6875 0 L 33.636719 0 L 33.636719 -1.9375 C 28.707031 -3.171875 26.59375 -6.164062 26.59375 -22.367188 L 26.59375 -66.390625 L 54.945312 -66.214844 C 73.261719 -66.039062 77.136719 -61.988281 78.542969 -55.472656 L 80.480469 -55.472656 L 80.480469 -78.894531 L 78.542969 -78.894531 C 77.136719 -72.378906 73.261719 -68.328125 54.945312 -68.503906 L 26.59375 -68.683594 L 26.59375 -120.984375 L 62.871094 -120.984375 C 78.71875 -120.984375 85.410156 -116.757812 90.695312 -105.488281 L 92.28125 -105.839844 L 90.519531 -123.273438 L 9.6875 -123.273438 L 9.6875 -121.335938 C 14.617188 -120.105469 16.730469 -117.109375 16.730469 -100.910156 L 16.730469 -22.367188 C 16.730469 -6.164062 14.617188 -3.171875 9.6875 -1.9375 Z M 9.6875 0 "/></g></g></g><g fill="#737373" fill-opacity="1"><g transform="translate(184.318351, 298.303003)"><g><path d="M 3.257812 0 L 14.882812 0 L 14.882812 -0.96875 C 12.417969 -1.585938 11.359375 -3.082031 11.359375 -11.183594 L 11.359375 -28.707031 C 11.710938 -32.757812 14.96875 -38.65625 17.964844 -40.507812 C 22.628906 -39.273438 26.328125 -38.304688 28.441406 -38.304688 C 30.820312 -38.304688 32.757812 -40.683594 32.757812 -42.53125 C 32.757812 -43.589844 30.996094 -44.644531 26.859375 -44.644531 C 22.71875 -44.644531 19.8125 -43.414062 17.613281 -41.738281 C 15.320312 -39.976562 12.769531 -36.632812 11.359375 -32.933594 L 11.359375 -44.117188 L 10.742188 -44.644531 L 3.257812 -41.386719 L 3.257812 -40.59375 C 5.898438 -39.449219 6.78125 -38.65625 6.78125 -31.4375 L 6.78125 -11.183594 C 6.78125 -3.082031 5.722656 -1.585938 3.257812 -0.96875 Z M 3.257812 0 "/></g></g></g><g fill="#737373" fill-opacity="1"><g transform="translate(218.307496, 298.303003)"><g><path d="M 24.566406 0.878906 C 33.109375 0.878906 39.890625 -4.492188 44.820312 -10.65625 L 44.117188 -11.359375 C 39.625 -6.253906 34.957031 -2.992188 27.824219 -2.992188 C 16.203125 -2.992188 8.101562 -11.269531 8.101562 -24.039062 C 8.101562 -25.890625 8.277344 -27.648438 8.628906 -29.324219 L 44.027344 -29.324219 C 43.589844 -38.394531 36.984375 -44.644531 26.859375 -44.644531 C 13.5625 -44.644531 3.609375 -34.695312 3.609375 -21.046875 C 3.609375 -6.253906 14.882812 0.878906 24.566406 0.878906 Z M 8.804688 -30.378906 C 10.742188 -38.21875 16.203125 -43.148438 23.777344 -43.148438 C 33.902344 -43.148438 38.394531 -34.78125 39.097656 -30.378906 Z M 8.804688 -30.378906 "/></g></g></g><g fill="#737373" fill-opacity="1"><g transform="translate(265.945127, 298.303003)"><g><path d="M 24.566406 0.878906 C 33.109375 0.878906 39.890625 -4.492188 44.820312 -10.65625 L 44.117188 -11.359375 C 39.625 -6.253906 34.957031 -2.992188 27.824219 -2.992188 C 16.203125 -2.992188 8.101562 -11.269531 8.101562 -24.039062 C 8.101562 -25.890625 8.277344 -27.648438 8.628906 -29.324219 L 44.027344 -29.324219 C 43.589844 -38.394531 36.984375 -44.644531 26.859375 -44.644531 C 13.5625 -44.644531 3.609375 -34.695312 3.609375 -21.046875 C 3.609375 -6.253906 14.882812 0.878906 24.566406 0.878906 Z M 8.804688 -30.378906 C 10.742188 -38.21875 16.203125 -43.148438 23.777344 -43.148438 C 33.902344 -43.148438 38.394531 -34.78125 39.097656 -30.378906 Z M 8.804688 -30.378906 "/></g></g></g><g fill="#86efac" fill-opacity="1"><g transform="translate(61.01725, 297.289402)"><g><path d="M 2.640625 -31.136719 L 60.695312 -31.136719 L 60.695312 -22.34375 C 60.695312 -6.15625 58.582031 -3.167969 53.65625 -1.933594 L 53.65625 0 L 77.582031 0 L 77.582031 -1.933594 C 72.65625 -3.167969 70.546875 -6.15625 70.546875 -22.34375 L 70.546875 -31.3125 L 77.40625 -31.3125 C 79.339844 -31.3125 80.75 -32.019531 81.628906 -33.777344 L 82.859375 -36.0625 L 82.683594 -36.417969 L 70.546875 -36.417969 L 70.546875 -124.378906 L 68.082031 -124.378906 L 1.757812 -32.898438 Z M 7.390625 -36.417969 L 60.695312 -110.128906 L 60.695312 -36.417969 Z M 7.390625 -36.417969 "/></g></g></g></svg>