<svg xmlns="http://www.w3.org/2000/svg" xmlns:xlink="http://www.w3.org/1999/xlink" width="500" zoomAndPan="magnify" viewBox="0 0 375 374.999991" height="500" preserveAspectRatio="xMidYMid meet" version="1.0"><defs><g/></defs><g fill="#86efac" fill-opacity="1"><g transform="translate(53.217958, 169.072963)"><g><path d="M 9.589844 0 L 33.300781 0 L 33.300781 -1.917969 C 28.417969 -3.136719 26.328125 -6.101562 26.328125 -22.140625 L 26.328125 -65.730469 L 54.398438 -65.554688 C 72.53125 -65.382812 76.367188 -61.371094 77.761719 -54.921875 L 79.679688 -54.921875 L 79.679688 -78.109375 L 77.761719 -78.109375 C 76.367188 -71.65625 72.53125 -67.648438 54.398438 -67.820312 L 26.328125 -67.996094 L 26.328125 -119.777344 L 62.242188 -119.777344 C 77.933594 -119.777344 84.558594 -115.59375 89.789062 -104.4375 L 91.359375 -104.785156 L 89.617188 -122.046875 L 9.589844 -122.046875 L 9.589844 -120.128906 C 14.472656 -118.90625 16.5625 -115.941406 16.5625 -99.902344 L 16.5625 -22.140625 C 16.5625 -6.101562 14.472656 -3.136719 9.589844 -1.917969 Z M 9.589844 0 "/></g></g></g><g fill="#000000" fill-opacity="1"><g transform="translate(84.901595, 168.895991)"><g><path d="M 3.257812 0 L 14.882812 0 L 14.882812 -0.96875 C 12.414062 -1.585938 11.359375 -3.082031 11.359375 -11.183594 L 11.359375 -44.113281 L 10.742188 -44.644531 L 3.257812 -41.386719 L 3.257812 -40.59375 C 5.898438 -39.449219 6.78125 -38.65625 6.78125 -31.433594 L 6.78125 -11.183594 C 6.78125 -3.082031 5.722656 -1.585938 3.257812 -0.96875 Z M 4.929688 -56.265625 C 4.929688 -54.242188 6.515625 -52.65625 8.542969 -52.65625 C 10.566406 -52.65625 12.152344 -54.242188 12.152344 -56.265625 C 12.152344 -58.292969 10.65625 -59.875 8.542969 -59.875 C 6.515625 -59.875 4.929688 -58.292969 4.929688 -56.265625 Z M 4.929688 -56.265625 "/></g></g></g><g fill="#000000" fill-opacity="1"><g transform="translate(103.303754, 168.895991)"><g><path d="M 16.816406 0.878906 C 21.75 0.878906 26.417969 -3.171875 29.144531 -6.429688 L 28.441406 -7.132812 C 25.535156 -3.785156 22.367188 -2.289062 19.285156 -2.289062 C 15.585938 -2.289062 12.679688 -4.492188 12.679688 -11.09375 L 12.679688 -42.96875 L 25.359375 -42.96875 L 25.886719 -44.027344 L 12.679688 -44.027344 L 12.679688 -53.976562 L 11.710938 -53.976562 L 2.464844 -44.027344 L 2.464844 -42.96875 L 8.101562 -42.96875 L 8.101562 -10.917969 C 8.101562 -2.113281 11.710938 0.878906 16.816406 0.878906 Z M 16.816406 0.878906 "/></g></g></g><g fill="#000000" fill-opacity="1"><g transform="translate(132.359784, 168.895991)"><g><path d="M 3.257812 0 L 14.882812 0 L 14.882812 -0.96875 C 12.414062 -1.585938 11.359375 -3.082031 11.359375 -11.183594 L 11.359375 -35.132812 C 15.585938 -38.742188 21.308594 -42.355469 26.855469 -42.355469 C 36.015625 -42.355469 40.328125 -37.070312 40.328125 -26.59375 L 40.328125 -11.183594 C 40.328125 -3.082031 39.273438 -1.585938 36.804688 -0.96875 L 36.804688 0 L 48.429688 0 L 48.429688 -0.96875 C 45.964844 -1.585938 44.90625 -3.082031 44.90625 -11.183594 L 44.90625 -28.441406 C 44.90625 -38.832031 39.800781 -44.644531 30.554688 -44.644531 C 23.773438 -44.644531 16.730469 -40.855469 11.359375 -36.453125 L 11.359375 -44.113281 L 10.742188 -44.644531 L 3.257812 -41.386719 L 3.257812 -40.59375 C 5.898438 -39.449219 6.78125 -38.65625 6.78125 -31.433594 L 6.78125 -11.183594 C 6.78125 -3.082031 5.722656 -1.585938 3.257812 -0.96875 Z M 3.257812 0 "/></g></g></g><g fill="#000000" fill-opacity="1"><g transform="translate(183.251862, 168.895991)"><g><path d="M 24.566406 0.878906 C 33.109375 0.878906 39.886719 -4.492188 44.820312 -10.65625 L 44.113281 -11.359375 C 39.625 -6.25 34.957031 -2.992188 27.824219 -2.992188 C 16.203125 -2.992188 8.101562 -11.269531 8.101562 -24.039062 C 8.101562 -25.886719 8.277344 -27.648438 8.628906 -29.320312 L 44.027344 -29.320312 C 43.585938 -38.390625 36.984375 -44.644531 26.855469 -44.644531 C 13.558594 -44.644531 3.609375 -34.691406 3.609375 -21.042969 C 3.609375 -6.25 14.882812 0.878906 24.566406 0.878906 Z M 8.804688 -30.378906 C 10.742188 -38.214844 16.203125 -43.144531 23.773438 -43.144531 C 33.902344 -43.144531 38.390625 -34.78125 39.097656 -30.378906 Z M 8.804688 -30.378906 "/></g></g></g><g fill="#000000" fill-opacity="1"><g transform="translate(230.886132, 168.895991)"><g><path d="M 20.339844 0.878906 C 28.617188 0.792969 35.574219 -4.050781 35.574219 -12.328125 C 35.574219 -20.867188 27.03125 -22.804688 20.691406 -24.832031 C 14.882812 -26.679688 7.925781 -29.144531 7.925781 -35.484375 C 7.925781 -40.679688 12.0625 -43.585938 18.492188 -43.585938 C 24.566406 -43.585938 30.378906 -40.152344 33.019531 -33.636719 L 33.722656 -33.8125 L 33.371094 -42.089844 C 30.90625 -43.144531 26.0625 -44.644531 19.546875 -44.644531 C 11.269531 -44.644531 4.667969 -40.152344 4.667969 -32.933594 C 4.667969 -24.742188 11.007812 -22.804688 18.316406 -20.339844 C 24.214844 -18.316406 32.226562 -16.554688 32.226562 -9.421875 C 32.226562 -3.433594 27.648438 -0.527344 22.101562 -0.527344 C 14 -0.527344 7.75 -4.753906 4.226562 -13.03125 L 3.523438 -12.855469 L 4.136719 -2.992188 C 6.605469 -1.410156 12.589844 0.96875 20.339844 0.878906 Z M 20.339844 0.878906 "/></g></g></g><g fill="#86efac" fill-opacity="1"><g transform="translate(101.277214, 297.247482)"><g><path d="M 9.6875 0 L 33.636719 0 L 33.636719 -1.9375 C 28.707031 -3.171875 26.59375 -6.164062 26.59375 -22.367188 L 26.59375 -66.390625 L 54.945312 -66.214844 C 73.261719 -66.039062 77.136719 -61.988281 78.542969 -55.472656 L 80.480469 -55.472656 L 80.480469 -78.894531 L 78.542969 -78.894531 C 77.136719 -72.378906 73.261719 -68.328125 54.945312 -68.503906 L 26.59375 -68.683594 L 26.59375 -120.984375 L 62.871094 -120.984375 C 78.71875 -120.984375 85.410156 -116.757812 90.695312 -105.488281 L 92.28125 -105.839844 L 90.519531 -123.273438 L 9.6875 -123.273438 L 9.6875 -121.335938 C 14.617188 -120.105469 16.730469 -117.109375 16.730469 -100.910156 L 16.730469 -22.367188 C 16.730469 -6.164062 14.617188 -3.171875 9.6875 -1.9375 Z M 9.6875 0 "/></g></g></g><g fill="#000000" fill-opacity="1"><g transform="translate(140.46335, 298.092747)"><g><path d="M 3.257812 0 L 14.882812 0 L 14.882812 -0.96875 C 12.414062 -1.585938 11.359375 -3.082031 11.359375 -11.183594 L 11.359375 -28.707031 C 11.710938 -32.757812 14.96875 -38.65625 17.964844 -40.503906 C 22.628906 -39.273438 26.328125 -38.304688 28.441406 -38.304688 C 30.820312 -38.304688 32.757812 -40.679688 32.757812 -42.53125 C 32.757812 -43.585938 30.996094 -44.644531 26.855469 -44.644531 C 22.71875 -44.644531 19.8125 -43.410156 17.609375 -41.738281 C 15.320312 -39.976562 12.769531 -36.628906 11.359375 -32.933594 L 11.359375 -44.113281 L 10.742188 -44.644531 L 3.257812 -41.386719 L 3.257812 -40.59375 C 5.898438 -39.449219 6.78125 -38.65625 6.78125 -31.433594 L 6.78125 -11.183594 C 6.78125 -3.082031 5.722656 -1.585938 3.257812 -0.96875 Z M 3.257812 0 "/></g></g></g><g fill="#000000" fill-opacity="1"><g transform="translate(174.450104, 298.092747)"><g><path d="M 24.566406 0.878906 C 33.109375 0.878906 39.886719 -4.492188 44.820312 -10.65625 L 44.113281 -11.359375 C 39.625 -6.25 34.957031 -2.992188 27.824219 -2.992188 C 16.203125 -2.992188 8.101562 -11.269531 8.101562 -24.039062 C 8.101562 -25.886719 8.277344 -27.648438 8.628906 -29.320312 L 44.027344 -29.320312 C 43.585938 -38.390625 36.984375 -44.644531 26.855469 -44.644531 C 13.558594 -44.644531 3.609375 -34.691406 3.609375 -21.042969 C 3.609375 -6.25 14.882812 0.878906 24.566406 0.878906 Z M 8.804688 -30.378906 C 10.742188 -38.214844 16.203125 -43.144531 23.773438 -43.144531 C 33.902344 -43.144531 38.390625 -34.78125 39.097656 -30.378906 Z M 8.804688 -30.378906 "/></g></g></g><g fill="#000000" fill-opacity="1"><g transform="translate(222.084374, 298.092747)"><g><path d="M 24.566406 0.878906 C 33.109375 0.878906 39.886719 -4.492188 44.820312 -10.65625 L 44.113281 -11.359375 C 39.625 -6.25 34.957031 -2.992188 27.824219 -2.992188 C 16.203125 -2.992188 8.101562 -11.269531 8.101562 -24.039062 C 8.101562 -25.886719 8.277344 -27.648438 8.628906 -29.320312 L 44.027344 -29.320312 C 43.585938 -38.390625 36.984375 -44.644531 26.855469 -44.644531 C 13.558594 -44.644531 3.609375 -34.691406 3.609375 -21.042969 C 3.609375 -6.25 14.882812 0.878906 24.566406 0.878906 Z M 8.804688 -30.378906 C 10.742188 -38.214844 16.203125 -43.144531 23.773438 -43.144531 C 33.902344 -43.144531 38.390625 -34.78125 39.097656 -30.378906 Z M 8.804688 -30.378906 "/></g></g></g><g fill="#86efac" fill-opacity="1"><g transform="translate(217.655352, 268.32207)"><g><path d="M 3.050781 -36 L 70.167969 -36 L 70.167969 -25.828125 C 70.167969 -7.117188 67.726562 -3.660156 62.03125 -2.238281 L 62.03125 0 L 89.691406 0 L 89.691406 -2.238281 C 83.996094 -3.660156 81.558594 -7.117188 81.558594 -25.828125 L 81.558594 -36.203125 L 89.488281 -36.203125 C 91.726562 -36.203125 93.351562 -37.015625 94.371094 -39.050781 L 95.792969 -41.695312 L 95.589844 -42.101562 L 81.558594 -42.101562 L 81.558594 -143.792969 L 78.710938 -143.792969 L 2.035156 -38.03125 Z M 8.542969 -42.101562 L 70.167969 -127.320312 L 70.167969 -42.101562 Z M 8.542969 -42.101562 "/></g></g></g></svg>